<svg xmlns="http://www.w3.org/2000/svg" >
<defs>
<symbol id="icon-menu" viewBox="0 0 24 24">
<path d="M2 6a1 1 0 0 1 1-1h18a1 1 0 1 1 0 2H3a1 1 0 0 1-1-1Zm0 6.032a1 1 0 0 1 1-1h18a1 1 0 1 1 0 2H3a1 1 0 0 1-1-1Zm1 5.032a1 1 0 1 0 0 2h18a1 1 0 0 0 0-2H3Z"/>
</symbol>
<symbol id="AM-Clear" viewBox="0 0 24 24"><path fill="yellow" d="M12 2a.75.75 0 0 1 .75.75v1.5a.75.75 0 0 1-1.5 0v-1.5A.75.75 0 0 1 12 2Zm0 15a5 5 0 1 0 0-10a5 5 0 0 0 0 10Zm0-1.5a3.5 3.5 0 1 1 0-7a3.5 3.5 0 0 1 0 7Zm9.25-2.75a.75.75 0 0 0 0-1.5h-1.5a.75.75 0 0 0 0 1.5h1.5ZM12 19a.75.75 0 0 1 .75.75v1.5a.75.75 0 0 1-1.5 0v-1.5A.75.75 0 0 1 12 19Zm-7.75-6.25a.75.75 0 0 0 0-1.5h-1.5a.75.75 0 0 0 0 1.5h1.5Zm-.03-8.53a.75.75 0 0 1 1.06 0l1.5 1.5a.75.75 0 0 1-1.06 1.06l-1.5-1.5a.75.75 0 0 1 0-1.06Zm1.06 15.56a.75.75 0 1 1-1.06-1.06l1.5-1.5a.75.75 0 1 1 1.06 1.06l-1.5 1.5Zm14.5-15.56a.75.75 0 0 0-1.06 0l-1.5 1.5a.75.75 0 0 0 1.06 1.06l1.5-1.5a.75.75 0 0 0 0-1.06Zm-1.06 15.56a.75.75 0 1 0 1.06-1.06l-1.5-1.5a.75.75 0 1 0-1.06 1.06l1.5 1.5Z"/> </symbol>
<symbol id="PM-Clear" viewBox="0 0 24 24"><path fill="currentColor" d="M15.493 13.497a6.981 6.981 0 0 1-11.483.892c2.831-1.087 4.558-2.42 5.593-4.397c1.048-2 1.337-4.16.76-6.909a6.981 6.981 0 0 1 5.13 10.414ZM5.457 16.918A7.981 7.981 0 1 0 9.88 2.035a.599.599 0 0 0-.614.74c.688 2.819.434 4.876-.55 6.753c-.934 1.784-2.544 3.031-5.55 4.107a.599.599 0 0 0-.292.903a7.952 7.952 0 0 0 2.582 2.38Z"/></symbol>
<symbol id="AM-Few-Clouds" viewBox="0 0 24 24"><path fill="currentColor" d="M11 7c2.464 0 3.863 1.573 4.066 3.474h.062c1.586 0 2.872 1.237 2.872 2.763C18 14.763 16.714 16 15.128 16H6.872C5.286 16 4 14.763 4 13.237c0-1.526 1.286-2.763 2.872-2.763h.062C7.138 8.56 8.535 7 11 7Zm0 1c-1.65 0-3.087 1.27-3.087 3.025c0 .278-.254.496-.545.496h-.55C5.814 11.52 5 12.3 5 13.26c0 .96.814 1.74 1.818 1.74h8.364C16.186 15 17 14.22 17 13.26s-.814-1.74-1.818-1.74h-.55c-.291.001-.545-.217-.545-.495C14.087 9.248 12.649 8 11 8ZM3.803 9.7a.5.5 0 0 1-.228.6l-.082.036l-.801.276a.5.5 0 0 1-.408-.909l.082-.036l.802-.276a.5.5 0 0 1 .635.31ZM8.92 5.5c.333.162.625.373.874.62c-.406.083-.786.21-1.136.375A2.28 2.28 0 0 0 5.646 9.8c-.33.098-.64.241-.925.42A3.28 3.28 0 0 1 8.919 5.5Zm-6.003.17L3 5.702l.762.371a.5.5 0 0 1-.354.931l-.085-.032l-.761-.371a.5.5 0 0 1 .354-.931ZM9.99 3.295a.5.5 0 0 1 .262.585l-.032.084l-.371.762a.5.5 0 0 1-.931-.354l.032-.085l.371-.762a.5.5 0 0 1 .67-.23ZM6.2 3.263l.037.082l.276.802a.5.5 0 0 1-.909.407l-.037-.082l-.275-.801a.5.5 0 0 1 .908-.408Z"/></symbol>
<symbol id="PM-Few-Clouds" viewBox="0 0 24 24"><path fill="currentColor" d="M11 7c2.465 0 3.863 1.574 4.066 3.474h.062c1.586 0 2.872 1.237 2.872 2.763C18 14.763 16.714 16 15.128 16H6.872C5.286 16 4 14.763 4 13.237c0-1.47 1.192-2.671 2.697-2.758l.237-.005C7.139 8.561 8.535 7 11 7Zm0 1c-1.65 0-3.087 1.27-3.087 3.025c0 .278-.254.496-.545.496h-.55C5.814 11.521 5 12.3 5 13.261C5 14.22 5.814 15 6.818 15h8.364C16.186 15 17 14.221 17 13.26c0-.96-.814-1.739-1.818-1.739h-.55c-.29 0-.545-.218-.545-.496C14.087 9.248 12.65 8 11 8ZM5.843 3a4.236 4.236 0 0 1 1.895.565a4.238 4.238 0 0 1 1.979 2.573a4.931 4.931 0 0 0-1.073.363A3.048 3.048 0 0 0 7 4.375a6.016 6.016 0 0 0-.535-.249c.086 1.228-.036 2.483-.626 3.445c-.58.853-1.328 1.423-2.558 1.898c.14.124.29.236.45.339c.31.198.618.351.92.46a3.7 3.7 0 0 0-.878.811a4.24 4.24 0 0 1-1.662-1.418a.629.629 0 0 1 .306-.948c1.376-.492 2.117-1.046 2.54-1.856c.463-.883.549-1.82.242-3.08a.628.628 0 0 1 .644-.776Z"/></symbol>
<symbol id="AM-Broken-Clouds" viewBox="0 0 24 24"><path fill="currentColor" d="M13.002 7.009c3.168 0 4.966 2.097 5.227 4.63h.08a3.687 3.687 0 0 1 3.692 3.683a3.687 3.687 0 0 1-3.692 3.682H7.694a3.687 3.687 0 0 1-3.692-3.682a3.687 3.687 0 0 1 3.692-3.683h.08c.263-2.55 2.06-4.63 5.228-4.63Zm0 1.497c-2.072 0-3.877 1.634-3.877 3.89c0 .357-.319.638-.684.638h-.69c-1.262 0-2.284 1-2.284 2.236c0 1.235 1.022 2.236 2.283 2.236h10.503c1.261 0 2.283-1 2.283-2.236c0-1.235-1.022-2.236-2.283-2.236h-.69c-.366 0-.685-.28-.685-.638c0-2.285-1.805-3.89-3.876-3.89ZM10 4c1.617 0 3.05.815 3.9 2.062a7.496 7.496 0 0 0-.898-.053c-.395 0-.775.029-1.139.085a3.22 3.22 0 0 0-5.032 2.062l-.073.414a1 1 0 0 1-.985.827h-.49a1.782 1.782 0 0 0-1.264 3.04c-.315.4-.565.855-.735 1.347a3.282 3.282 0 0 1 1.812-5.881l.257-.006A4.72 4.72 0 0 1 10 4Z"/></symbol>
<symbol id="PM-Broken-Clouds" viewBox="0 0 24 24"><path fill="currentColor" d="M13.002 7.009c3.168 0 4.966 2.097 5.227 4.63h.08a3.687 3.687 0 0 1 3.692 3.683a3.687 3.687 0 0 1-3.692 3.682H7.694a3.687 3.687 0 0 1-3.692-3.682a3.687 3.687 0 0 1 3.692-3.683h.08c.263-2.55 2.06-4.63 5.228-4.63Zm0 1.497c-2.072 0-3.877 1.634-3.877 3.89c0 .357-.319.638-.684.638h-.69c-1.262 0-2.284 1-2.284 2.236c0 1.235 1.022 2.236 2.283 2.236h10.503c1.261 0 2.283-1 2.283-2.236c0-1.235-1.022-2.236-2.283-2.236h-.69c-.366 0-.685-.28-.685-.638c0-2.285-1.805-3.89-3.876-3.89ZM10 4c1.617 0 3.05.815 3.9 2.062a7.496 7.496 0 0 0-.898-.053c-.395 0-.775.029-1.139.085a3.22 3.22 0 0 0-5.032 2.062l-.073.414a1 1 0 0 1-.985.827h-.49a1.782 1.782 0 0 0-1.264 3.04c-.315.4-.565.855-.735 1.347a3.282 3.282 0 0 1 1.812-5.881l.257-.006A4.72 4.72 0 0 1 10 4Z"/></symbol>
<symbol id="AM-Scattered-Clouds" viewBox="0 0 24 24"><path fill="currentColor" d="M17 19H6c-2.206 0-4-1.794-4-4a4.007 4.007 0 0 1 3.001-3.874L5 11c0-3.309 2.691-6 6-6a5.969 5.969 0 0 1 5.65 4.015C19.592 8.769 22 11.128 22 14c0 2.757-2.243 5-5 5zM5.905 12.994C4.897 13 4 13.897 4 15s.897 2 2 2h11c1.654 0 3-1.346 3-3s-1.346-3-3-3c-.243 0-.5.041-.81.13l-1.075.307l-.186-1.103A3.978 3.978 0 0 0 11 7a4.004 4.004 0 0 0-3.918 4.811l.244 1.199l-1.421-.016z"/></symbol>
<symbol id="PM-Scattered-Clouds" viewBox="0 0 24 24"><path fill="currentColor" d="M17 19H6c-2.206 0-4-1.794-4-4a4.007 4.007 0 0 1 3.001-3.874L5 11c0-3.309 2.691-6 6-6a5.969 5.969 0 0 1 5.65 4.015C19.592 8.769 22 11.128 22 14c0 2.757-2.243 5-5 5zM5.905 12.994C4.897 13 4 13.897 4 15s.897 2 2 2h11c1.654 0 3-1.346 3-3s-1.346-3-3-3c-.243 0-.5.041-.81.13l-1.075.307l-.186-1.103A3.978 3.978 0 0 0 11 7a4.004 4.004 0 0 0-3.918 4.811l.244 1.199l-1.421-.016z"/></symbol>
<symbol id="AM-Shower-Rain" viewBox="0 0 24 24"><path fill="currentColor" d="M10 4c2.465 0 3.863 1.574 4.066 3.474h.062c1.586 0 2.872 1.237 2.872 2.763C17 11.763 15.714 13 14.128 13h-1.502a.5.5 0 1 1-.948 0l-4.237-.001l-1.496 2.746a.5.5 0 0 1-.914-.395l.036-.083l1.235-2.268l-.43.001C4.286 13 3 11.763 3 10.237c0-1.526 1.286-2.763 2.872-2.763h.062C6.139 5.561 7.535 4 10 4Zm1.5 11a.5.5 0 1 1 0 1a.5.5 0 0 1 0-1Zm-2.198-.94a.49.49 0 0 1 .235.587l-.036.082l-.562 1.014a.504.504 0 0 1-.678.197a.49.49 0 0 1-.236-.587l.036-.082l.562-1.014a.504.504 0 0 1 .679-.197ZM13.5 14a.5.5 0 1 1 0 1a.5.5 0 0 1 0-1ZM10 5C8.35 5 6.913 6.27 6.913 8.025c0 .278-.254.496-.545.496h-.55C4.814 8.521 4 9.3 4 10.261C4 11.22 4.814 12 5.818 12h8.364C15.186 12 16 11.221 16 10.26c0-.96-.814-1.739-1.818-1.739h-.55c-.29 0-.545-.218-.545-.496C13.087 6.248 11.65 5 10 5Z"/></symbol>
<symbol id="PM-Shower-Rain" viewBox="0 0 24 24"><path fill="currentColor" d="M10 4c2.465 0 3.863 1.574 4.066 3.474h.062c1.586 0 2.872 1.237 2.872 2.763C17 11.763 15.714 13 14.128 13h-1.502a.5.5 0 1 1-.948 0l-4.237-.001l-1.496 2.746a.5.5 0 0 1-.914-.395l.036-.083l1.235-2.268l-.43.001C4.286 13 3 11.763 3 10.237c0-1.526 1.286-2.763 2.872-2.763h.062C6.139 5.561 7.535 4 10 4Zm1.5 11a.5.5 0 1 1 0 1a.5.5 0 0 1 0-1Zm-2.198-.94a.49.49 0 0 1 .235.587l-.036.082l-.562 1.014a.504.504 0 0 1-.678.197a.49.49 0 0 1-.236-.587l.036-.082l.562-1.014a.504.504 0 0 1 .679-.197ZM13.5 14a.5.5 0 1 1 0 1a.5.5 0 0 1 0-1ZM10 5C8.35 5 6.913 6.27 6.913 8.025c0 .278-.254.496-.545.496h-.55C4.814 8.521 4 9.3 4 10.261C4 11.22 4.814 12 5.818 12h8.364C15.186 12 16 11.221 16 10.26c0-.96-.814-1.739-1.818-1.739h-.55c-.29 0-.545-.218-.545-.496C13.087 6.248 11.65 5 10 5Z"/></symbol>
<symbol id="AM-Rain" viewBox="0 0 24 24"><path fill="currentColor" d="M11 6c2.464 0 3.863 1.573 4.066 3.474h.062c1.586 0 2.872 1.237 2.872 2.763C18 13.763 16.714 15 15.128 15h-.694l-.017.041l-1.485 2.704a.5.5 0 0 1-.914-.396l.036-.082L13.3 15h-1.854l-.018.041l-1.485 2.704a.5.5 0 0 1-.914-.396l.036-.082L10.312 15H8.44l-1.496 2.745a.5.5 0 0 1-.914-.396l.036-.082L7.302 15h-.43C5.286 15 4 13.763 4 12.237c0-1.526 1.286-2.763 2.872-2.763h.062C7.138 7.56 8.535 6 11 6Zm0 1c-1.65 0-3.087 1.27-3.087 3.025c0 .278-.254.496-.545.496h-.55C5.814 10.52 5 11.3 5 12.26c0 .96.814 1.74 1.818 1.74h8.364C16.186 14 17 13.22 17 12.26s-.814-1.74-1.818-1.74h-.55c-.291.001-.545-.217-.545-.495C14.087 8.248 12.649 7 11 7ZM3.803 8.7a.5.5 0 0 1-.228.6l-.082.036l-.801.276a.5.5 0 0 1-.408-.909l.082-.036l.802-.276a.5.5 0 0 1 .635.31ZM8.92 4.5c.333.162.625.373.874.62c-.406.083-.786.21-1.136.375A2.28 2.28 0 0 0 5.646 8.8c-.33.098-.64.241-.925.42A3.28 3.28 0 0 1 8.919 4.5Zm-6.003.17L3 4.702l.762.371a.5.5 0 0 1-.354.931l-.085-.032l-.761-.371a.5.5 0 0 1 .354-.931ZM9.99 2.295a.5.5 0 0 1 .262.585l-.032.084l-.371.762a.5.5 0 0 1-.931-.354l.032-.085l.371-.762a.5.5 0 0 1 .67-.23ZM6.2 2.263l.037.082l.276.802a.5.5 0 0 1-.909.407l-.037-.082l-.275-.801a.5.5 0 0 1 .908-.408Z"/></symbol>
<symbol id="PM-Rain" viewBox="0 0 24 24"><path fill="currentColor" d="M13.001 6.018c3.169 0 4.966 2.097 5.228 4.63h.08A3.687 3.687 0 0 1 22 14.33a3.687 3.687 0 0 1-3.692 3.683h-.637l-1.536 2.612a.75.75 0 0 1-1.344-.658l.045-.092l1.103-1.862h-2.136l-1.536 2.612a.75.75 0 0 1-1.344-.658l.045-.092l1.103-1.862H9.935L8.4 20.625a.75.75 0 0 1-1.344-.658l.045-.092l1.102-1.862h-.51a3.687 3.687 0 0 1-3.691-3.683a3.687 3.687 0 0 1 3.692-3.682h.08c.263-2.55 2.059-4.63 5.227-4.63Zm0 1.497c-2.071 0-3.877 1.634-3.877 3.89c0 .357-.318.637-.684.637h-.69c-1.261 0-2.283 1.002-2.283 2.237s1.022 2.236 2.283 2.236h10.503c1.26 0 2.283-1.001 2.283-2.236c0-1.235-1.022-2.237-2.283-2.237h-.69c-.366 0-.685-.28-.685-.637c0-2.285-1.806-3.89-3.877-3.89ZM6.588 2.01a5.058 5.058 0 0 1 2.264.674a5.057 5.057 0 0 1 2.208 2.595c-.5.14-.963.338-1.386.584A3.554 3.554 0 0 0 7.484 3.7c.16 1.352-.048 2.513-.623 3.61l-.118.214c-.57.976-1.432 1.708-2.718 2.304a3.614 3.614 0 0 0 1.07.614a4.628 4.628 0 0 0-1.166 1.119l-.155-.085a5.062 5.062 0 0 1-1.642-1.514a.75.75 0 0 1 .366-1.132C4.14 8.243 5.025 7.58 5.53 6.615c.553-1.055.655-2.174.288-3.677a.75.75 0 0 1 .77-.928Z"/></symbol>
<symbol id="PM-Thunderstorm" viewBox="0 0 24 24"><path fill="currentColor" d="M10.464 15.748L12.7 13.26a.75.75 0 0 1 1.184.915l-.068.088l-1.111 1.236h2.276a.75.75 0 0 1 .645 1.134l-.058.084l-3.212 4.031a.75.75 0 0 1-1.236-.843l.063-.091l2.242-2.815h-2.403a.75.75 0 0 1-.623-1.168l.065-.083L12.7 13.26l-2.236 2.488Zm2.538-10.74c3.168 0 4.966 2.098 5.227 4.631h.08a3.687 3.687 0 0 1 3.692 3.683a3.687 3.687 0 0 1-3.692 3.682l-1.788.001a1.333 1.333 0 0 0-.002-1.5l1.734.002c1.261 0 2.283-1.002 2.283-2.237s-1.022-2.236-2.283-2.236h-.69c-.366 0-.685-.28-.685-.638c0-2.285-1.805-3.89-3.876-3.89c-2.072 0-3.877 1.634-3.877 3.89c0 .357-.319.638-.684.638h-.69c-1.262 0-2.284 1-2.284 2.236c0 1.235 1.022 2.237 2.283 2.237l1.762-.001a1.332 1.332 0 0 0-.002 1.5l-1.816-.002a3.687 3.687 0 0 1-3.692-3.682a3.687 3.687 0 0 1 3.692-3.683h.08c.263-2.55 2.06-4.63 5.228-4.63ZM10 2c1.617 0 3.05.815 3.9 2.062a7.496 7.496 0 0 0-.898-.053c-.395 0-.775.029-1.139.085a3.22 3.22 0 0 0-5.032 2.062l-.073.414a1 1 0 0 1-.985.827h-.49a1.782 1.782 0 0 0-1.264 3.04c-.315.4-.565.855-.735 1.347a3.282 3.282 0 0 1 1.812-5.881l.257-.006A4.72 4.72 0 0 1 10 2Z"/></symbol>
<symbol id="AM-Thunderstorm" viewBox="0 0 24 24"><path fill="currentColor" d="M10.464 15.748L12.7 13.26a.75.75 0 0 1 1.184.915l-.068.088l-1.111 1.236h2.276a.75.75 0 0 1 .645 1.134l-.058.084l-3.212 4.031a.75.75 0 0 1-1.236-.843l.063-.091l2.242-2.815h-2.403a.75.75 0 0 1-.623-1.168l.065-.083L12.7 13.26l-2.236 2.488Zm2.538-10.74c3.168 0 4.966 2.098 5.227 4.631h.08a3.687 3.687 0 0 1 3.692 3.683a3.687 3.687 0 0 1-3.692 3.682l-1.788.001a1.333 1.333 0 0 0-.002-1.5l1.734.002c1.261 0 2.283-1.002 2.283-2.237s-1.022-2.236-2.283-2.236h-.69c-.366 0-.685-.28-.685-.638c0-2.285-1.805-3.89-3.876-3.89c-2.072 0-3.877 1.634-3.877 3.89c0 .357-.319.638-.684.638h-.69c-1.262 0-2.284 1-2.284 2.236c0 1.235 1.022 2.237 2.283 2.237l1.762-.001a1.332 1.332 0 0 0-.002 1.5l-1.816-.002a3.687 3.687 0 0 1-3.692-3.682a3.687 3.687 0 0 1 3.692-3.683h.08c.263-2.55 2.06-4.63 5.228-4.63ZM10 2c1.617 0 3.05.815 3.9 2.062a7.496 7.496 0 0 0-.898-.053c-.395 0-.775.029-1.139.085a3.22 3.22 0 0 0-5.032 2.062l-.073.414a1 1 0 0 1-.985.827h-.49a1.782 1.782 0 0 0-1.264 3.04c-.315.4-.565.855-.735 1.347a3.282 3.282 0 0 1 1.812-5.881l.257-.006A4.72 4.72 0 0 1 10 2Z"/></symbol>
<symbol id="AM-Snow" viewBox="0 0 24 24"><path fill="currentColor" d="M10 1.998a.5.5 0 0 1 .492.41l.008.09v3.065l2.018-1.772a.5.5 0 1 1 .66.751l-2.679 2.353v2.603h2.605l2.355-2.676a.5.5 0 0 1 .633-.099l.072.053a.5.5 0 0 1 .099.633l-.053.073l-1.774 2.016h3.065a.5.5 0 0 1 .492.41l.009.09a.5.5 0 0 1-.41.493l-.09.008h-3.067l1.773 2.018a.5.5 0 0 1 .017.64l-.063.066a.5.5 0 0 1-.64.016l-.065-.062l-2.354-2.678l-2.605-.001v2.605l2.68 2.355a.5.5 0 0 1 .099.632l-.054.073a.5.5 0 0 1-.633.1l-.072-.054l-2.02-1.775v3.067a.5.5 0 0 1-.41.492l-.09.008a.5.5 0 0 1-.493-.41l-.008-.09v-3.064l-2.015 1.772a.5.5 0 1 1-.66-.751l2.676-2.353v-2.606l-2.427.002l-.026.037l-2.502 2.847a.5.5 0 0 1-.752-.66L5.747 10.5H2.499a.5.5 0 0 1-.492-.41L1.999 10a.5.5 0 0 1 .41-.491l.09-.008h2.88L3.79 7.689a.5.5 0 0 1 .752-.66L6.71 9.5h2.789V6.893L6.822 4.54a.5.5 0 0 1-.098-.633l.053-.072a.5.5 0 0 1 .633-.1l.072.054L9.5 5.562V2.498a.5.5 0 0 1 .326-.469l.084-.023l.09-.008Z"/></symbol>
<symbol id="PM-Snow" viewBox="0 0 24 24"><path fill="currentColor" d="M10 1.998a.5.5 0 0 1 .492.41l.008.09v3.065l2.018-1.772a.5.5 0 1 1 .66.751l-2.679 2.353v2.603h2.605l2.355-2.676a.5.5 0 0 1 .633-.099l.072.053a.5.5 0 0 1 .099.633l-.053.073l-1.774 2.016h3.065a.5.5 0 0 1 .492.41l.009.09a.5.5 0 0 1-.41.493l-.09.008h-3.067l1.773 2.018a.5.5 0 0 1 .017.64l-.063.066a.5.5 0 0 1-.64.016l-.065-.062l-2.354-2.678l-2.605-.001v2.605l2.68 2.355a.5.5 0 0 1 .099.632l-.054.073a.5.5 0 0 1-.633.1l-.072-.054l-2.02-1.775v3.067a.5.5 0 0 1-.41.492l-.09.008a.5.5 0 0 1-.493-.41l-.008-.09v-3.064l-2.015 1.772a.5.5 0 1 1-.66-.751l2.676-2.353v-2.606l-2.427.002l-.026.037l-2.502 2.847a.5.5 0 0 1-.752-.66L5.747 10.5H2.499a.5.5 0 0 1-.492-.41L1.999 10a.5.5 0 0 1 .41-.491l.09-.008h2.88L3.79 7.689a.5.5 0 0 1 .752-.66L6.71 9.5h2.789V6.893L6.822 4.54a.5.5 0 0 1-.098-.633l.053-.072a.5.5 0 0 1 .633-.1l.072.054L9.5 5.562V2.498a.5.5 0 0 1 .326-.469l.084-.023l.09-.008Z"/></symbol>
<symbol id="PM-Dust" viewBox="0 0 24 24"><path fill="currentColor" d="M6.5 14.997a1.5 1.5 0 1 1 0 3a1.5 1.5 0 0 1 0-3Zm0 1a.5.5 0 1 0 0 1a.5.5 0 0 0 0-1Zm9.113-7.776a2.392 2.392 0 0 1 .164 4.776l-.192.005l-.083.006h-1.206c.22.338.347.742.347 1.175c0 1.215-.913 2.186-2.118 2.186c-1.198 0-1.914-.694-2.108-1.663a.5.5 0 1 1 .98-.197c.107.532.445.86 1.128.86c.639 0 1.117-.51 1.117-1.186c0-.57-.41-1.046-.957-1.157l-.141-.019l-10.039.001a.5.5 0 0 1-.09-.992l.09-.008l9.881-.001l.057-.005c.052 0 .105.002.157.006h2.902l.025.002l.086-.008c.724 0 1.319-.551 1.386-1.257l.007-.133a1.392 1.392 0 0 0-2.783-.086a.5.5 0 1 1-.998-.06a2.392 2.392 0 0 1 2.388-2.245ZM9.765 3.55a3.231 3.231 0 0 1 .016 6.463H2.505a.5.5 0 0 1-.09-.992l.09-.008h7.26a2.231 2.231 0 1 0-2.231-2.232a.5.5 0 0 1-1 0A3.231 3.231 0 0 1 9.765 3.55ZM3.5 3a1.5 1.5 0 1 1 0 3a1.5 1.5 0 0 1 0-3Zm0 1a.5.5 0 1 0 0 1a.5.5 0 0 0 0-1Zm13.002-2a1.5 1.5 0 1 1 0 3a1.5 1.5 0 0 1 0-3Zm0 1a.5.5 0 1 0 0 1a.5.5 0 0 0 0-1Z"/></symbol>
<symbol id="AM-dust" viewBox="0 0 24 24"><path fill="currentColor" d="M6.5 14.997a1.5 1.5 0 1 1 0 3a1.5 1.5 0 0 1 0-3Zm0 1a.5.5 0 1 0 0 1a.5.5 0 0 0 0-1Zm9.113-7.776a2.392 2.392 0 0 1 .164 4.776l-.192.005l-.083.006h-1.206c.22.338.347.742.347 1.175c0 1.215-.913 2.186-2.118 2.186c-1.198 0-1.914-.694-2.108-1.663a.5.5 0 1 1 .98-.197c.107.532.445.86 1.128.86c.639 0 1.117-.51 1.117-1.186c0-.57-.41-1.046-.957-1.157l-.141-.019l-10.039.001a.5.5 0 0 1-.09-.992l.09-.008l9.881-.001l.057-.005c.052 0 .105.002.157.006h2.902l.025.002l.086-.008c.724 0 1.319-.551 1.386-1.257l.007-.133a1.392 1.392 0 0 0-2.783-.086a.5.5 0 1 1-.998-.06a2.392 2.392 0 0 1 2.388-2.245ZM9.765 3.55a3.231 3.231 0 0 1 .016 6.463H2.505a.5.5 0 0 1-.09-.992l.09-.008h7.26a2.231 2.231 0 1 0-2.231-2.232a.5.5 0 0 1-1 0A3.231 3.231 0 0 1 9.765 3.55ZM3.5 3a1.5 1.5 0 1 1 0 3a1.5 1.5 0 0 1 0-3Zm0 1a.5.5 0 1 0 0 1a.5.5 0 0 0 0-1Zm13.002-2a1.5 1.5 0 1 1 0 3a1.5 1.5 0 0 1 0-3Zm0 1a.5.5 0 1 0 0 1a.5.5 0 0 0 0-1Z"/></symbol>
<!-- uv-icon -->
<symbol id="uv-icon" viewBox="0 0 24 24"><rect x="0" y="0" width="32" height="32" fill="none" stroke="none" /><path fill="currentColor" d="M13 30H9a2.003 2.003 0 0 1-2-2v-8h2v8h4v-8h2v8a2.003 2.003 0 0 1-2 2zm12-10h-1.75L21 29.031L18.792 20H17l2.5 10h3L25 20zM15 2h2v5h-2zm6.688 6.9l3.506-3.506l1.414 1.414l-3.506 3.506zM25 15h5v2h-5zM2 15h5v2H2zm3.395-8.192l1.414-1.414L10.315 8.9L8.9 10.314zM22 17h-2v-1a4 4 0 0 0-8 0v1h-2v-1a6 6 0 0 1 12 0Z"/></symbol>
<!-- humidity-icon-->
<symbol id="humidity-icon" viewBox="0 0 24 24"><path fill="currentColor" d="M7.56 17.19c0-.88.24-1.89.72-3.03s1.1-2.25 1.86-3.31c1.56-2.06 2.92-3.62 4.06-4.67l.75-.72c.25.26.53.5.83.72c.41.42 1.04 1.11 1.88 2.09s1.57 1.85 2.17 2.65c.71 1.01 1.32 2.1 1.81 3.25s.74 2.16.74 3.03c0 1-.19 1.95-.58 2.86c-.39.91-.91 1.7-1.57 2.36c-.66.66-1.45 1.19-2.37 1.58c-.92.39-1.89.59-2.91.59c-1 0-1.95-.19-2.86-.57c-.91-.38-1.7-.89-2.36-1.55c-.66-.65-1.19-1.44-1.58-2.35s-.59-1.89-.59-2.93zm2.26-2.93c0 .83.17 1.49.52 1.99c.35.49.88.74 1.59.74c.72 0 1.25-.25 1.61-.74c.35-.49.53-1.15.54-1.99c-.01-.84-.19-1.5-.54-2c-.35-.49-.89-.74-1.61-.74c-.71 0-1.24.25-1.59.74c-.35.5-.52 1.16-.52 2zm1.57 0v-.35c0-.08.01-.19.02-.33s.02-.25.05-.32s.05-.16.09-.24c.04-.08.09-.15.15-.18c.07-.04.14-.06.23-.06c.14 0 .25.04.33.12s.14.21.17.38c.03.18.05.32.06.45s.01.3.01.52c0 .23 0 .4-.01.52s-.03.27-.06.45c-.03.17-.09.3-.17.38s-.19.12-.33.12c-.09 0-.16-.02-.23-.06a.335.335 0 0 1-.15-.18c-.04-.08-.07-.17-.09-.24c-.02-.08-.04-.19-.05-.32c-.01-.14-.02-.25-.02-.32v-.34zm.59 7.75h1.32l4.99-10.74h-1.35l-4.96 10.74zm4.3-2.99c.01.84.2 1.5.55 2c.35.49.89.74 1.6.74c.72 0 1.25-.25 1.6-.74c.35-.49.52-1.16.53-2c-.01-.84-.18-1.5-.53-1.99c-.35-.49-.88-.74-1.6-.74c-.71 0-1.25.25-1.6.74c-.36.49-.54 1.15-.55 1.99zm1.57 0c0-.23 0-.4.01-.52s.03-.27.06-.45s.09-.3.17-.38s.19-.12.33-.12c.09 0 .17.02.24.06c.07.04.12.1.16.19c.04.09.07.17.1.24s.04.18.05.32l.01.32v.69l-.01.32l-.05.32l-.1.24l-.16.19l-.24.06c-.14 0-.25-.04-.33-.12s-.14-.21-.17-.38c-.03-.18-.05-.33-.06-.45s-.01-.3-.01-.53z"/></symbol>
<!--  Sunrise-icon-->
<symbol id="sunRise-icon" viewBox="0 0 24 24"><path fill="none" stroke="currentColor" stroke-linecap="round" stroke-linejoin="round" stroke-width="2" d="M3 17h1m16 0h1M5.6 10.6l.7.7m12.1-.7l-.7.7M8 17a4 4 0 0 1 8 0M3 21h18M12 9V3l3 3M9 6l3-3"/></symbol>
<!--  SunSet-icon-->
<symbol id="sunSet-icon" viewBox="0 0 24 24" ><path fill="none" stroke="currentColor" stroke-linecap="round" stroke-linejoin="round" stroke-width="2" d="M3 17h1m16 0h1M5.6 10.6l.7.7m12.1-.7l-.7.7M8 17a4 4 0 0 1 8 0M3 21h18M12 3v6l3-3M9 6l3 3"/></symbol>
<!--  WindSpeed-icon-->
<symbol id="windSpeed-icon" viewBox="0 0 24 24" ><path fill="currentColor" d="M13 5.5C13 3.57 11.43 2 9.5 2C7.466 2 6.25 3.525 6.25 5h2c0-.415.388-1 1.25-1c.827 0 1.5.673 1.5 1.5S10.327 7 9.5 7H2v2h7.5C11.43 9 13 7.43 13 5.5zm2.5 9.5H8v2h7.5c.827 0 1.5.673 1.5 1.5s-.673 1.5-1.5 1.5c-.862 0-1.25-.585-1.25-1h-2c0 1.475 1.216 3 3.25 3c1.93 0 3.5-1.57 3.5-3.5S17.43 15 15.5 15z"/><path fill="currentColor" d="M18 5c-2.206 0-4 1.794-4 4h2c0-1.103.897-2 2-2s2 .897 2 2s-.897 2-2 2H2v2h16c2.206 0 4-1.794 4-4s-1.794-4-4-4zM2 15h4v2H2z"/></symbol>
<!--  temp-icon-->
<symbol id="temp-icon" viewBox="0 0 24 24" ><path fill="currentColor" d="M8 5a4 4 0 1 1 8 0v5.255a7 7 0 1 1-8 0V5zm1.144 6.895a5 5 0 1 0 5.712 0L14 11.298V5a2 2 0 1 0-4 0v6.298l-.856.597zM8 16h8a4 4 0 1 1-8 0z"/></symbol>
<symbol id="AM-Drizzle" viewBox="0 0 24 24" ><path fill="currentColor" d="M4.176 11.032a.5.5 0 0 1 .292.643l-1.5 4a.5.5 0 1 1-.936-.35l1.5-4a.5.5 0 0 1 .644-.293zm3 0a.5.5 0 0 1 .292.643l-1.5 4a.5.5 0 1 1-.936-.35l1.5-4a.5.5 0 0 1 .644-.293zm3 0a.5.5 0 0 1 .292.643l-1.5 4a.5.5 0 1 1-.936-.35l1.5-4a.5.5 0 0 1 .644-.293zm3 0a.5.5 0 0 1 .292.643l-1.5 4a.5.5 0 0 1-.936-.35l1.5-4a.5.5 0 0 1 .644-.293zm.229-7.005a5.001 5.001 0 0 0-9.499-1.004A3.5 3.5 0 1 0 3.5 10H13a3 3 0 0 0 .405-5.973zM8.5 1a4 4 0 0 1 3.976 3.555a.5.5 0 0 0 .5.445H13a2 2 0 0 1 0 4H3.5a2.5 2.5 0 1 1 .605-4.926a.5.5 0 0 0 .596-.329A4.002 4.002 0 0 1 8.5 1z"/></symbol>
<symbol id="PM-Drizzle" viewBox="0 0 24 24" ><path fill="currentColor" d="M4.176 11.032a.5.5 0 0 1 .292.643l-1.5 4a.5.5 0 1 1-.936-.35l1.5-4a.5.5 0 0 1 .644-.293zm3 0a.5.5 0 0 1 .292.643l-1.5 4a.5.5 0 1 1-.936-.35l1.5-4a.5.5 0 0 1 .644-.293zm3 0a.5.5 0 0 1 .292.643l-1.5 4a.5.5 0 1 1-.936-.35l1.5-4a.5.5 0 0 1 .644-.293zm3 0a.5.5 0 0 1 .292.643l-1.5 4a.5.5 0 0 1-.936-.35l1.5-4a.5.5 0 0 1 .644-.293zm.229-7.005a5.001 5.001 0 0 0-9.499-1.004A3.5 3.5 0 1 0 3.5 10H13a3 3 0 0 0 .405-5.973zM8.5 1a4 4 0 0 1 3.976 3.555a.5.5 0 0 0 .5.445H13a2 2 0 0 1 0 4H3.5a2.5 2.5 0 1 1 .605-4.926a.5.5 0 0 0 .596-.329A4.002 4.002 0 0 1 8.5 1z"/></symbol>
<symbol id="" viewBox="0 0 24 24" ></symbol>
<symbol id="" viewBox="0 0 24 24" ></symbol>
</defs></svg>
